<svg enable-background="new 0 0 512 512" height="512" viewBox="0 0 512 512" width="512" xmlns="http://www.w3.org/2000/svg" fill="currentColor"><path d="m411.522 93.3c-16.772-37.617-54.052-62.3-95.522-62.3-21.445 0-42.334 6.738-60 19.189-17.666-12.451-38.555-19.189-60-19.189-41.455 0-78.735 24.668-95.508 62.285-57.334 9.815-100.492 58.887-100.492 117.715 0 61.113 46.483 111.694 107.245 118.682-8.146 34.887 23.044 74.106 70.649 74.106 23.276-.015 50.288-9.272 78.442-31.743 17.579 12.29 38.351 18.955 59.664 18.955 41.455 0 78.735-24.668 95.508-62.285 57.334-9.815 100.492-58.887 100.492-117.715 0-58.037-42.986-107.783-100.478-117.7zm-215.522 147.7h-60c-6.064 0-11.543-3.647-13.857-9.258-2.329-5.61-1.04-12.056 3.252-16.348l34.394-34.394h-23.789c-8.291 0-15-6.709-15-15s6.709-15 15-15h60c6.064 0 11.543 3.647 13.857 9.258 2.329 5.61 1.04 12.056-3.252 16.348l-34.394 34.394h23.789c8.291 0 15 6.709 15 15s-6.709 15-15 15zm150 60h-90c-6.064 0-11.543-3.647-13.857-9.258-2.329-5.61-1.04-12.056 3.252-16.348l64.394-64.394h-53.789c-8.291 0-15-6.709-15-15s6.709-15 15-15h90c6.064 0 11.543 3.647 13.857 9.258 2.329 5.61 1.04 12.056-3.252 16.348l-64.394 64.394h53.789c8.291 0 15 6.709 15 15s-6.709 15-15 15z"/><circle cx="76" cy="436" r="45"/></svg>