<svg aria-label="Dreamwidth" version="1.1" xmlns="http://www.w3.org/2000/svg" x="0px" y="0px" viewBox="0 0 493.051 493.051" enable-background="new 0 0 493.051 493.051" fill="currentColor"><title>Dreamwidth</title><path d="M430.57,145.344c-62.969-62.969-165.055-62.969-227.999,0.001c-52.041,52.016-52.041,136.399,0.007,188.421 c43.294,43.294,113.487,43.294,156.763-0.008c36.295-36.295,36.295-95.157-0.005-131.456 c-30.687-30.687-80.477-30.687-111.187-0.007c-8.335,8.327-8.342,21.835-0.014,30.17c8.327,8.335,21.835,8.342,30.17,0.014 c14.048-14.035,36.834-14.035,50.861-0.007c19.637,19.637,19.637,51.484,0,71.121c-26.617,26.633-69.789,26.633-96.422,0 c-35.38-35.362-35.38-92.718-0.004-128.077c46.289-46.307,121.355-46.307,167.658-0.004 c59.936,59.955,59.936,157.15-0.002,217.107c-77.021,77.021-201.903,77.021-278.926-0.002 c-98.357-98.357-98.357-257.841,0-356.198c8.331-8.331,8.331-21.839,0-30.17c-8.331-8.331-21.839-8.331-30.17,0 c-115.019,115.019-115.019,301.519,0,416.538c93.686,93.686,245.583,93.686,339.268,0 C507.165,346.165,507.165,221.963,430.57,145.344z"/></svg>